<?xml version="1.0" encoding="iso-8859-1"?>
<!-- Generator: Adobe Illustrator 19.0.0, SVG Export Plug-In . SVG Version: 6.00 Build 0)  -->
<svg version="1.1" id="Capa_1" xmlns="http://www.w3.org/2000/svg" xmlns:xlink="http://www.w3.org/1999/xlink" x="0px" y="0px"
	 viewBox="0 0 512.01 512.01" style="enable-background:new 0 0 512.01 512.01;" xml:space="preserve">
<g>
	<g>
		<path d="M256,0C114.508,0,0,114.497,0,256c0,141.493,114.497,256,256,256c141.492,0,256-114.497,256-256
			C512,114.507,397.503,0,256,0z M256,472c-119.384,0-216-96.607-216-216c0-119.385,96.607-216,216-216
			c119.384,0,216,96.607,216,216C472,375.385,375.393,472,256,472z"/>
	</g>
</g>
<g>
	<g>
		<path d="M256.089,125.909c-11.794,0-21.328,9.534-21.328,21.328v127.968c0,11.794,9.534,21.328,21.328,21.328
			c11.794,0,21.328-9.555,21.328-21.328V147.237C277.417,135.443,267.884,125.909,256.089,125.909z"/>
	</g>
</g>
<g>
	<g>
		<path d="M275.69,354.524c-1.066-2.773-2.559-5.119-4.479-7.038c-1.066-0.853-2.133-1.92-3.412-2.559
			c-1.066-0.853-2.346-1.472-3.626-1.92c-1.28-0.661-2.559-1.066-4.052-1.28c-6.804-1.493-14.29,0.874-19.174,5.759
			c-1.92,1.919-3.412,4.266-4.479,7.038c-1.066,2.559-1.706,5.332-1.706,8.105c0,2.773,0.64,5.545,1.706,8.105
			c1.066,2.559,2.559,4.905,4.479,7.038c2.133,1.919,4.479,3.412,7.038,4.479c2.559,1.066,5.332,1.706,8.105,1.706
			c2.773,0,5.524-0.64,8.083-1.706c2.559-1.066,4.884-2.559,7.038-4.479c1.92-2.133,3.412-4.479,4.479-7.038
			c1.066-2.559,1.706-5.332,1.706-8.105C277.396,359.856,276.756,357.083,275.69,354.524z"/>
	</g>
</g>
<g>
</g>
<g>
</g>
<g>
</g>
<g>
</g>
<g>
</g>
<g>
</g>
<g>
</g>
<g>
</g>
<g>
</g>
<g>
</g>
<g>
</g>
<g>
</g>
<g>
</g>
<g>
</g>
<g>
</g>
</svg>
